<?xml version="1.0" encoding="utf-8" standalone="no"?>
<!DOCTYPE svg PUBLIC "-//W3C//DTD SVG 1.1//EN"
  "http://www.w3.org/Graphics/SVG/1.1/DTD/svg11.dtd">
<svg xmlns:xlink="http://www.w3.org/1999/xlink" width="1728pt" height="720pt" viewBox="0 0 1728 720" xmlns="http://www.w3.org/2000/svg" version="1.1">
 <metadata>
  <rdf:RDF xmlns:dc="http://purl.org/dc/elements/1.1/" xmlns:cc="http://creativecommons.org/ns#" xmlns:rdf="http://www.w3.org/1999/02/22-rdf-syntax-ns#">
   <cc:Work>
    <dc:type rdf:resource="http://purl.org/dc/dcmitype/StillImage"/>
    <dc:date>2024-04-06T17:04:44.124531</dc:date>
    <dc:format>image/svg+xml</dc:format>
    <dc:creator>
     <cc:Agent>
      <dc:title>Matplotlib v3.8.3, https://matplotlib.org/</dc:title>
     </cc:Agent>
    </dc:creator>
   </cc:Work>
  </rdf:RDF>
 </metadata>
 <defs>
  <style type="text/css">*{stroke-linejoin: round; stroke-linecap: butt}</style>
 </defs>
 <g id="figure_1">
  <g id="patch_1">
   <path d="M 0 720 
L 1728 720 
L 1728 0 
L 0 0 
z
" style="fill: #ffffff"/>
  </g>
  <g id="axes_1">
   <g id="patch_2">
    <path d="M 216 640.8 
L 1555.2 640.8 
L 1555.2 86.4 
L 216 86.4 
z
" style="fill: #ffffff"/>
   </g>
   <g id="matplotlib.axis_1">
    <g id="xtick_1">
     <g id="line2d_1">
      <path d="M 276.872727 640.8 
L 276.872727 86.4 
" clip-path="url(#pc6f2b31dd4)" style="fill: none; stroke: #b0b0b0; stroke-width: 0.8; stroke-linecap: square"/>
     </g>
     <g id="line2d_2">
      <defs>
       <path id="m67137294fa" d="M 0 0 
L 0 3.5 
" style="stroke: #000000; stroke-width: 0.8"/>
      </defs>
      <g>
       <use xlink:href="#m67137294fa" x="276.872727" y="640.8" style="stroke: #000000; stroke-width: 0.8"/>
      </g>
     </g>
     <g id="text_1">
      <!-- 2024-02-29 -->
      <g transform="translate(258.276924 694.266859) rotate(-45) scale(0.1 -0.1)">
       <defs>
        <path id="DejaVuSans-32" d="M 1228 531 
L 3431 531 
L 3431 0 
L 469 0 
L 469 531 
Q 828 903 1448 1529 
Q 2069 2156 2228 2338 
Q 2531 2678 2651 2914 
Q 2772 3150 2772 3378 
Q 2772 3750 2511 3984 
Q 2250 4219 1831 4219 
Q 1534 4219 1204 4116 
Q 875 4013 500 3803 
L 500 4441 
Q 881 4594 1212 4672 
Q 1544 4750 1819 4750 
Q 2544 4750 2975 4387 
Q 3406 4025 3406 3419 
Q 3406 3131 3298 2873 
Q 3191 2616 2906 2266 
Q 2828 2175 2409 1742 
Q 1991 1309 1228 531 
z
" transform="scale(0.015625)"/>
        <path id="DejaVuSans-30" d="M 2034 4250 
Q 1547 4250 1301 3770 
Q 1056 3291 1056 2328 
Q 1056 1369 1301 889 
Q 1547 409 2034 409 
Q 2525 409 2770 889 
Q 3016 1369 3016 2328 
Q 3016 3291 2770 3770 
Q 2525 4250 2034 4250 
z
M 2034 4750 
Q 2819 4750 3233 4129 
Q 3647 3509 3647 2328 
Q 3647 1150 3233 529 
Q 2819 -91 2034 -91 
Q 1250 -91 836 529 
Q 422 1150 422 2328 
Q 422 3509 836 4129 
Q 1250 4750 2034 4750 
z
" transform="scale(0.015625)"/>
        <path id="DejaVuSans-34" d="M 2419 4116 
L 825 1625 
L 2419 1625 
L 2419 4116 
z
M 2253 4666 
L 3047 4666 
L 3047 1625 
L 3713 1625 
L 3713 1100 
L 3047 1100 
L 3047 0 
L 2419 0 
L 2419 1100 
L 313 1100 
L 313 1709 
L 2253 4666 
z
" transform="scale(0.015625)"/>
        <path id="DejaVuSans-2d" d="M 313 2009 
L 1997 2009 
L 1997 1497 
L 313 1497 
L 313 2009 
z
" transform="scale(0.015625)"/>
        <path id="DejaVuSans-39" d="M 703 97 
L 703 672 
Q 941 559 1184 500 
Q 1428 441 1663 441 
Q 2288 441 2617 861 
Q 2947 1281 2994 2138 
Q 2813 1869 2534 1725 
Q 2256 1581 1919 1581 
Q 1219 1581 811 2004 
Q 403 2428 403 3163 
Q 403 3881 828 4315 
Q 1253 4750 1959 4750 
Q 2769 4750 3195 4129 
Q 3622 3509 3622 2328 
Q 3622 1225 3098 567 
Q 2575 -91 1691 -91 
Q 1453 -91 1209 -44 
Q 966 3 703 97 
z
M 1959 2075 
Q 2384 2075 2632 2365 
Q 2881 2656 2881 3163 
Q 2881 3666 2632 3958 
Q 2384 4250 1959 4250 
Q 1534 4250 1286 3958 
Q 1038 3666 1038 3163 
Q 1038 2656 1286 2365 
Q 1534 2075 1959 2075 
z
" transform="scale(0.015625)"/>
       </defs>
       <use xlink:href="#DejaVuSans-32"/>
       <use xlink:href="#DejaVuSans-30" x="63.623047"/>
       <use xlink:href="#DejaVuSans-32" x="127.246094"/>
       <use xlink:href="#DejaVuSans-34" x="190.869141"/>
       <use xlink:href="#DejaVuSans-2d" x="254.492188"/>
       <use xlink:href="#DejaVuSans-30" x="290.576172"/>
       <use xlink:href="#DejaVuSans-32" x="354.199219"/>
       <use xlink:href="#DejaVuSans-2d" x="417.822266"/>
       <use xlink:href="#DejaVuSans-32" x="453.90625"/>
       <use xlink:href="#DejaVuSans-39" x="517.529297"/>
      </g>
     </g>
    </g>
    <g id="xtick_2">
     <g id="line2d_3">
      <path d="M 423.701416 640.8 
L 423.701416 86.4 
" clip-path="url(#pc6f2b31dd4)" style="fill: none; stroke: #b0b0b0; stroke-width: 0.8; stroke-linecap: square"/>
     </g>
     <g id="line2d_4">
      <g>
       <use xlink:href="#m67137294fa" x="423.701416" y="640.8" style="stroke: #000000; stroke-width: 0.8"/>
      </g>
     </g>
     <g id="text_2">
      <!-- 2024-03-01 -->
      <g transform="translate(405.105613 694.266859) rotate(-45) scale(0.1 -0.1)">
       <defs>
        <path id="DejaVuSans-33" d="M 2597 2516 
Q 3050 2419 3304 2112 
Q 3559 1806 3559 1356 
Q 3559 666 3084 287 
Q 2609 -91 1734 -91 
Q 1441 -91 1130 -33 
Q 819 25 488 141 
L 488 750 
Q 750 597 1062 519 
Q 1375 441 1716 441 
Q 2309 441 2620 675 
Q 2931 909 2931 1356 
Q 2931 1769 2642 2001 
Q 2353 2234 1838 2234 
L 1294 2234 
L 1294 2753 
L 1863 2753 
Q 2328 2753 2575 2939 
Q 2822 3125 2822 3475 
Q 2822 3834 2567 4026 
Q 2313 4219 1838 4219 
Q 1578 4219 1281 4162 
Q 984 4106 628 3988 
L 628 4550 
Q 988 4650 1302 4700 
Q 1616 4750 1894 4750 
Q 2613 4750 3031 4423 
Q 3450 4097 3450 3541 
Q 3450 3153 3228 2886 
Q 3006 2619 2597 2516 
z
" transform="scale(0.015625)"/>
        <path id="DejaVuSans-31" d="M 794 531 
L 1825 531 
L 1825 4091 
L 703 3866 
L 703 4441 
L 1819 4666 
L 2450 4666 
L 2450 531 
L 3481 531 
L 3481 0 
L 794 0 
L 794 531 
z
" transform="scale(0.015625)"/>
       </defs>
       <use xlink:href="#DejaVuSans-32"/>
       <use xlink:href="#DejaVuSans-30" x="63.623047"/>
       <use xlink:href="#DejaVuSans-32" x="127.246094"/>
       <use xlink:href="#DejaVuSans-34" x="190.869141"/>
       <use xlink:href="#DejaVuSans-2d" x="254.492188"/>
       <use xlink:href="#DejaVuSans-30" x="290.576172"/>
       <use xlink:href="#DejaVuSans-33" x="354.199219"/>
       <use xlink:href="#DejaVuSans-2d" x="417.822266"/>
       <use xlink:href="#DejaVuSans-30" x="453.90625"/>
       <use xlink:href="#DejaVuSans-31" x="517.529297"/>
      </g>
     </g>
    </g>
    <g id="xtick_3">
     <g id="line2d_5">
      <path d="M 570.530105 640.8 
L 570.530105 86.4 
" clip-path="url(#pc6f2b31dd4)" style="fill: none; stroke: #b0b0b0; stroke-width: 0.8; stroke-linecap: square"/>
     </g>
     <g id="line2d_6">
      <g>
       <use xlink:href="#m67137294fa" x="570.530105" y="640.8" style="stroke: #000000; stroke-width: 0.8"/>
      </g>
     </g>
     <g id="text_3">
      <!-- 2024-03-02 -->
      <g transform="translate(551.934302 694.266859) rotate(-45) scale(0.1 -0.1)">
       <use xlink:href="#DejaVuSans-32"/>
       <use xlink:href="#DejaVuSans-30" x="63.623047"/>
       <use xlink:href="#DejaVuSans-32" x="127.246094"/>
       <use xlink:href="#DejaVuSans-34" x="190.869141"/>
       <use xlink:href="#DejaVuSans-2d" x="254.492188"/>
       <use xlink:href="#DejaVuSans-30" x="290.576172"/>
       <use xlink:href="#DejaVuSans-33" x="354.199219"/>
       <use xlink:href="#DejaVuSans-2d" x="417.822266"/>
       <use xlink:href="#DejaVuSans-30" x="453.90625"/>
       <use xlink:href="#DejaVuSans-32" x="517.529297"/>
      </g>
     </g>
    </g>
    <g id="xtick_4">
     <g id="line2d_7">
      <path d="M 717.358794 640.8 
L 717.358794 86.4 
" clip-path="url(#pc6f2b31dd4)" style="fill: none; stroke: #b0b0b0; stroke-width: 0.8; stroke-linecap: square"/>
     </g>
     <g id="line2d_8">
      <g>
       <use xlink:href="#m67137294fa" x="717.358794" y="640.8" style="stroke: #000000; stroke-width: 0.8"/>
      </g>
     </g>
     <g id="text_4">
      <!-- 2024-03-03 -->
      <g transform="translate(698.76299 694.266859) rotate(-45) scale(0.1 -0.1)">
       <use xlink:href="#DejaVuSans-32"/>
       <use xlink:href="#DejaVuSans-30" x="63.623047"/>
       <use xlink:href="#DejaVuSans-32" x="127.246094"/>
       <use xlink:href="#DejaVuSans-34" x="190.869141"/>
       <use xlink:href="#DejaVuSans-2d" x="254.492188"/>
       <use xlink:href="#DejaVuSans-30" x="290.576172"/>
       <use xlink:href="#DejaVuSans-33" x="354.199219"/>
       <use xlink:href="#DejaVuSans-2d" x="417.822266"/>
       <use xlink:href="#DejaVuSans-30" x="453.90625"/>
       <use xlink:href="#DejaVuSans-33" x="517.529297"/>
      </g>
     </g>
    </g>
    <g id="xtick_5">
     <g id="line2d_9">
      <path d="M 864.187483 640.8 
L 864.187483 86.4 
" clip-path="url(#pc6f2b31dd4)" style="fill: none; stroke: #b0b0b0; stroke-width: 0.8; stroke-linecap: square"/>
     </g>
     <g id="line2d_10">
      <g>
       <use xlink:href="#m67137294fa" x="864.187483" y="640.8" style="stroke: #000000; stroke-width: 0.8"/>
      </g>
     </g>
     <g id="text_5">
      <!-- 2024-03-04 -->
      <g transform="translate(845.591679 694.266859) rotate(-45) scale(0.1 -0.1)">
       <use xlink:href="#DejaVuSans-32"/>
       <use xlink:href="#DejaVuSans-30" x="63.623047"/>
       <use xlink:href="#DejaVuSans-32" x="127.246094"/>
       <use xlink:href="#DejaVuSans-34" x="190.869141"/>
       <use xlink:href="#DejaVuSans-2d" x="254.492188"/>
       <use xlink:href="#DejaVuSans-30" x="290.576172"/>
       <use xlink:href="#DejaVuSans-33" x="354.199219"/>
       <use xlink:href="#DejaVuSans-2d" x="417.822266"/>
       <use xlink:href="#DejaVuSans-30" x="453.90625"/>
       <use xlink:href="#DejaVuSans-34" x="517.529297"/>
      </g>
     </g>
    </g>
    <g id="xtick_6">
     <g id="line2d_11">
      <path d="M 1011.016172 640.8 
L 1011.016172 86.4 
" clip-path="url(#pc6f2b31dd4)" style="fill: none; stroke: #b0b0b0; stroke-width: 0.8; stroke-linecap: square"/>
     </g>
     <g id="line2d_12">
      <g>
       <use xlink:href="#m67137294fa" x="1011.016172" y="640.8" style="stroke: #000000; stroke-width: 0.8"/>
      </g>
     </g>
     <g id="text_6">
      <!-- 2024-03-05 -->
      <g transform="translate(992.420368 694.266859) rotate(-45) scale(0.1 -0.1)">
       <defs>
        <path id="DejaVuSans-35" d="M 691 4666 
L 3169 4666 
L 3169 4134 
L 1269 4134 
L 1269 2991 
Q 1406 3038 1543 3061 
Q 1681 3084 1819 3084 
Q 2600 3084 3056 2656 
Q 3513 2228 3513 1497 
Q 3513 744 3044 326 
Q 2575 -91 1722 -91 
Q 1428 -91 1123 -41 
Q 819 9 494 109 
L 494 744 
Q 775 591 1075 516 
Q 1375 441 1709 441 
Q 2250 441 2565 725 
Q 2881 1009 2881 1497 
Q 2881 1984 2565 2268 
Q 2250 2553 1709 2553 
Q 1456 2553 1204 2497 
Q 953 2441 691 2322 
L 691 4666 
z
" transform="scale(0.015625)"/>
       </defs>
       <use xlink:href="#DejaVuSans-32"/>
       <use xlink:href="#DejaVuSans-30" x="63.623047"/>
       <use xlink:href="#DejaVuSans-32" x="127.246094"/>
       <use xlink:href="#DejaVuSans-34" x="190.869141"/>
       <use xlink:href="#DejaVuSans-2d" x="254.492188"/>
       <use xlink:href="#DejaVuSans-30" x="290.576172"/>
       <use xlink:href="#DejaVuSans-33" x="354.199219"/>
       <use xlink:href="#DejaVuSans-2d" x="417.822266"/>
       <use xlink:href="#DejaVuSans-30" x="453.90625"/>
       <use xlink:href="#DejaVuSans-35" x="517.529297"/>
      </g>
     </g>
    </g>
    <g id="xtick_7">
     <g id="line2d_13">
      <path d="M 1157.844861 640.8 
L 1157.844861 86.4 
" clip-path="url(#pc6f2b31dd4)" style="fill: none; stroke: #b0b0b0; stroke-width: 0.8; stroke-linecap: square"/>
     </g>
     <g id="line2d_14">
      <g>
       <use xlink:href="#m67137294fa" x="1157.844861" y="640.8" style="stroke: #000000; stroke-width: 0.8"/>
      </g>
     </g>
     <g id="text_7">
      <!-- 2024-03-06 -->
      <g transform="translate(1139.249057 694.266859) rotate(-45) scale(0.1 -0.1)">
       <defs>
        <path id="DejaVuSans-36" d="M 2113 2584 
Q 1688 2584 1439 2293 
Q 1191 2003 1191 1497 
Q 1191 994 1439 701 
Q 1688 409 2113 409 
Q 2538 409 2786 701 
Q 3034 994 3034 1497 
Q 3034 2003 2786 2293 
Q 2538 2584 2113 2584 
z
M 3366 4563 
L 3366 3988 
Q 3128 4100 2886 4159 
Q 2644 4219 2406 4219 
Q 1781 4219 1451 3797 
Q 1122 3375 1075 2522 
Q 1259 2794 1537 2939 
Q 1816 3084 2150 3084 
Q 2853 3084 3261 2657 
Q 3669 2231 3669 1497 
Q 3669 778 3244 343 
Q 2819 -91 2113 -91 
Q 1303 -91 875 529 
Q 447 1150 447 2328 
Q 447 3434 972 4092 
Q 1497 4750 2381 4750 
Q 2619 4750 2861 4703 
Q 3103 4656 3366 4563 
z
" transform="scale(0.015625)"/>
       </defs>
       <use xlink:href="#DejaVuSans-32"/>
       <use xlink:href="#DejaVuSans-30" x="63.623047"/>
       <use xlink:href="#DejaVuSans-32" x="127.246094"/>
       <use xlink:href="#DejaVuSans-34" x="190.869141"/>
       <use xlink:href="#DejaVuSans-2d" x="254.492188"/>
       <use xlink:href="#DejaVuSans-30" x="290.576172"/>
       <use xlink:href="#DejaVuSans-33" x="354.199219"/>
       <use xlink:href="#DejaVuSans-2d" x="417.822266"/>
       <use xlink:href="#DejaVuSans-30" x="453.90625"/>
       <use xlink:href="#DejaVuSans-36" x="517.529297"/>
      </g>
     </g>
    </g>
    <g id="xtick_8">
     <g id="line2d_15">
      <path d="M 1304.67355 640.8 
L 1304.67355 86.4 
" clip-path="url(#pc6f2b31dd4)" style="fill: none; stroke: #b0b0b0; stroke-width: 0.8; stroke-linecap: square"/>
     </g>
     <g id="line2d_16">
      <g>
       <use xlink:href="#m67137294fa" x="1304.67355" y="640.8" style="stroke: #000000; stroke-width: 0.8"/>
      </g>
     </g>
     <g id="text_8">
      <!-- 2024-03-07 -->
      <g transform="translate(1286.077746 694.266859) rotate(-45) scale(0.1 -0.1)">
       <defs>
        <path id="DejaVuSans-37" d="M 525 4666 
L 3525 4666 
L 3525 4397 
L 1831 0 
L 1172 0 
L 2766 4134 
L 525 4134 
L 525 4666 
z
" transform="scale(0.015625)"/>
       </defs>
       <use xlink:href="#DejaVuSans-32"/>
       <use xlink:href="#DejaVuSans-30" x="63.623047"/>
       <use xlink:href="#DejaVuSans-32" x="127.246094"/>
       <use xlink:href="#DejaVuSans-34" x="190.869141"/>
       <use xlink:href="#DejaVuSans-2d" x="254.492188"/>
       <use xlink:href="#DejaVuSans-30" x="290.576172"/>
       <use xlink:href="#DejaVuSans-33" x="354.199219"/>
       <use xlink:href="#DejaVuSans-2d" x="417.822266"/>
       <use xlink:href="#DejaVuSans-30" x="453.90625"/>
       <use xlink:href="#DejaVuSans-37" x="517.529297"/>
      </g>
     </g>
    </g>
    <g id="xtick_9">
     <g id="line2d_17">
      <path d="M 1451.502238 640.8 
L 1451.502238 86.4 
" clip-path="url(#pc6f2b31dd4)" style="fill: none; stroke: #b0b0b0; stroke-width: 0.8; stroke-linecap: square"/>
     </g>
     <g id="line2d_18">
      <g>
       <use xlink:href="#m67137294fa" x="1451.502238" y="640.8" style="stroke: #000000; stroke-width: 0.8"/>
      </g>
     </g>
     <g id="text_9">
      <!-- 2024-03-08 -->
      <g transform="translate(1432.906435 694.266859) rotate(-45) scale(0.1 -0.1)">
       <defs>
        <path id="DejaVuSans-38" d="M 2034 2216 
Q 1584 2216 1326 1975 
Q 1069 1734 1069 1313 
Q 1069 891 1326 650 
Q 1584 409 2034 409 
Q 2484 409 2743 651 
Q 3003 894 3003 1313 
Q 3003 1734 2745 1975 
Q 2488 2216 2034 2216 
z
M 1403 2484 
Q 997 2584 770 2862 
Q 544 3141 544 3541 
Q 544 4100 942 4425 
Q 1341 4750 2034 4750 
Q 2731 4750 3128 4425 
Q 3525 4100 3525 3541 
Q 3525 3141 3298 2862 
Q 3072 2584 2669 2484 
Q 3125 2378 3379 2068 
Q 3634 1759 3634 1313 
Q 3634 634 3220 271 
Q 2806 -91 2034 -91 
Q 1263 -91 848 271 
Q 434 634 434 1313 
Q 434 1759 690 2068 
Q 947 2378 1403 2484 
z
M 1172 3481 
Q 1172 3119 1398 2916 
Q 1625 2713 2034 2713 
Q 2441 2713 2670 2916 
Q 2900 3119 2900 3481 
Q 2900 3844 2670 4047 
Q 2441 4250 2034 4250 
Q 1625 4250 1398 4047 
Q 1172 3844 1172 3481 
z
" transform="scale(0.015625)"/>
       </defs>
       <use xlink:href="#DejaVuSans-32"/>
       <use xlink:href="#DejaVuSans-30" x="63.623047"/>
       <use xlink:href="#DejaVuSans-32" x="127.246094"/>
       <use xlink:href="#DejaVuSans-34" x="190.869141"/>
       <use xlink:href="#DejaVuSans-2d" x="254.492188"/>
       <use xlink:href="#DejaVuSans-30" x="290.576172"/>
       <use xlink:href="#DejaVuSans-33" x="354.199219"/>
       <use xlink:href="#DejaVuSans-2d" x="417.822266"/>
       <use xlink:href="#DejaVuSans-30" x="453.90625"/>
       <use xlink:href="#DejaVuSans-38" x="517.529297"/>
      </g>
     </g>
    </g>
    <g id="text_10">
     <!-- Time -->
     <g transform="translate(873.366406 707.335858) scale(0.1 -0.1)">
      <defs>
       <path id="DejaVuSans-54" d="M -19 4666 
L 3928 4666 
L 3928 4134 
L 2272 4134 
L 2272 0 
L 1638 0 
L 1638 4134 
L -19 4134 
L -19 4666 
z
" transform="scale(0.015625)"/>
       <path id="DejaVuSans-69" d="M 603 3500 
L 1178 3500 
L 1178 0 
L 603 0 
L 603 3500 
z
M 603 4863 
L 1178 4863 
L 1178 4134 
L 603 4134 
L 603 4863 
z
" transform="scale(0.015625)"/>
       <path id="DejaVuSans-6d" d="M 3328 2828 
Q 3544 3216 3844 3400 
Q 4144 3584 4550 3584 
Q 5097 3584 5394 3201 
Q 5691 2819 5691 2113 
L 5691 0 
L 5113 0 
L 5113 2094 
Q 5113 2597 4934 2840 
Q 4756 3084 4391 3084 
Q 3944 3084 3684 2787 
Q 3425 2491 3425 1978 
L 3425 0 
L 2847 0 
L 2847 2094 
Q 2847 2600 2669 2842 
Q 2491 3084 2119 3084 
Q 1678 3084 1418 2786 
Q 1159 2488 1159 1978 
L 1159 0 
L 581 0 
L 581 3500 
L 1159 3500 
L 1159 2956 
Q 1356 3278 1631 3431 
Q 1906 3584 2284 3584 
Q 2666 3584 2933 3390 
Q 3200 3197 3328 2828 
z
" transform="scale(0.015625)"/>
       <path id="DejaVuSans-65" d="M 3597 1894 
L 3597 1613 
L 953 1613 
Q 991 1019 1311 708 
Q 1631 397 2203 397 
Q 2534 397 2845 478 
Q 3156 559 3463 722 
L 3463 178 
Q 3153 47 2828 -22 
Q 2503 -91 2169 -91 
Q 1331 -91 842 396 
Q 353 884 353 1716 
Q 353 2575 817 3079 
Q 1281 3584 2069 3584 
Q 2775 3584 3186 3129 
Q 3597 2675 3597 1894 
z
M 3022 2063 
Q 3016 2534 2758 2815 
Q 2500 3097 2075 3097 
Q 1594 3097 1305 2825 
Q 1016 2553 972 2059 
L 3022 2063 
z
" transform="scale(0.015625)"/>
      </defs>
      <use xlink:href="#DejaVuSans-54"/>
      <use xlink:href="#DejaVuSans-69" x="57.958984"/>
      <use xlink:href="#DejaVuSans-6d" x="85.742188"/>
      <use xlink:href="#DejaVuSans-65" x="183.154297"/>
     </g>
    </g>
   </g>
   <g id="matplotlib.axis_2">
    <g id="ytick_1">
     <g id="line2d_19">
      <path d="M 216 618.662526 
L 1555.2 618.662526 
" clip-path="url(#pc6f2b31dd4)" style="fill: none; stroke: #b0b0b0; stroke-width: 0.8; stroke-linecap: square"/>
     </g>
     <g id="line2d_20">
      <defs>
       <path id="md26901c7ea" d="M 0 0 
L -3.5 0 
" style="stroke: #000000; stroke-width: 0.8"/>
      </defs>
      <g>
       <use xlink:href="#md26901c7ea" x="216" y="618.662526" style="stroke: #000000; stroke-width: 0.8"/>
      </g>
     </g>
     <g id="text_11">
      <!-- −60 -->
      <g transform="translate(187.895312 622.461745) scale(0.1 -0.1)">
       <defs>
        <path id="DejaVuSans-2212" d="M 678 2272 
L 4684 2272 
L 4684 1741 
L 678 1741 
L 678 2272 
z
" transform="scale(0.015625)"/>
       </defs>
       <use xlink:href="#DejaVuSans-2212"/>
       <use xlink:href="#DejaVuSans-36" x="83.789062"/>
       <use xlink:href="#DejaVuSans-30" x="147.412109"/>
      </g>
     </g>
    </g>
    <g id="ytick_2">
     <g id="line2d_21">
      <path d="M 216 543.527537 
L 1555.2 543.527537 
" clip-path="url(#pc6f2b31dd4)" style="fill: none; stroke: #b0b0b0; stroke-width: 0.8; stroke-linecap: square"/>
     </g>
     <g id="line2d_22">
      <g>
       <use xlink:href="#md26901c7ea" x="216" y="543.527537" style="stroke: #000000; stroke-width: 0.8"/>
      </g>
     </g>
     <g id="text_12">
      <!-- −40 -->
      <g transform="translate(187.895312 547.326756) scale(0.1 -0.1)">
       <use xlink:href="#DejaVuSans-2212"/>
       <use xlink:href="#DejaVuSans-34" x="83.789062"/>
       <use xlink:href="#DejaVuSans-30" x="147.412109"/>
      </g>
     </g>
    </g>
    <g id="ytick_3">
     <g id="line2d_23">
      <path d="M 216 468.392548 
L 1555.2 468.392548 
" clip-path="url(#pc6f2b31dd4)" style="fill: none; stroke: #b0b0b0; stroke-width: 0.8; stroke-linecap: square"/>
     </g>
     <g id="line2d_24">
      <g>
       <use xlink:href="#md26901c7ea" x="216" y="468.392548" style="stroke: #000000; stroke-width: 0.8"/>
      </g>
     </g>
     <g id="text_13">
      <!-- −20 -->
      <g transform="translate(187.895312 472.191767) scale(0.1 -0.1)">
       <use xlink:href="#DejaVuSans-2212"/>
       <use xlink:href="#DejaVuSans-32" x="83.789062"/>
       <use xlink:href="#DejaVuSans-30" x="147.412109"/>
      </g>
     </g>
    </g>
    <g id="ytick_4">
     <g id="line2d_25">
      <path d="M 216 393.257559 
L 1555.2 393.257559 
" clip-path="url(#pc6f2b31dd4)" style="fill: none; stroke: #b0b0b0; stroke-width: 0.8; stroke-linecap: square"/>
     </g>
     <g id="line2d_26">
      <g>
       <use xlink:href="#md26901c7ea" x="216" y="393.257559" style="stroke: #000000; stroke-width: 0.8"/>
      </g>
     </g>
     <g id="text_14">
      <!-- 0 -->
      <g transform="translate(202.6375 397.056778) scale(0.1 -0.1)">
       <use xlink:href="#DejaVuSans-30"/>
      </g>
     </g>
    </g>
    <g id="ytick_5">
     <g id="line2d_27">
      <path d="M 216 318.12257 
L 1555.2 318.12257 
" clip-path="url(#pc6f2b31dd4)" style="fill: none; stroke: #b0b0b0; stroke-width: 0.8; stroke-linecap: square"/>
     </g>
     <g id="line2d_28">
      <g>
       <use xlink:href="#md26901c7ea" x="216" y="318.12257" style="stroke: #000000; stroke-width: 0.8"/>
      </g>
     </g>
     <g id="text_15">
      <!-- 20 -->
      <g transform="translate(196.275 321.921789) scale(0.1 -0.1)">
       <use xlink:href="#DejaVuSans-32"/>
       <use xlink:href="#DejaVuSans-30" x="63.623047"/>
      </g>
     </g>
    </g>
    <g id="ytick_6">
     <g id="line2d_29">
      <path d="M 216 242.987581 
L 1555.2 242.987581 
" clip-path="url(#pc6f2b31dd4)" style="fill: none; stroke: #b0b0b0; stroke-width: 0.8; stroke-linecap: square"/>
     </g>
     <g id="line2d_30">
      <g>
       <use xlink:href="#md26901c7ea" x="216" y="242.987581" style="stroke: #000000; stroke-width: 0.8"/>
      </g>
     </g>
     <g id="text_16">
      <!-- 40 -->
      <g transform="translate(196.275 246.7868) scale(0.1 -0.1)">
       <use xlink:href="#DejaVuSans-34"/>
       <use xlink:href="#DejaVuSans-30" x="63.623047"/>
      </g>
     </g>
    </g>
    <g id="ytick_7">
     <g id="line2d_31">
      <path d="M 216 167.852592 
L 1555.2 167.852592 
" clip-path="url(#pc6f2b31dd4)" style="fill: none; stroke: #b0b0b0; stroke-width: 0.8; stroke-linecap: square"/>
     </g>
     <g id="line2d_32">
      <g>
       <use xlink:href="#md26901c7ea" x="216" y="167.852592" style="stroke: #000000; stroke-width: 0.8"/>
      </g>
     </g>
     <g id="text_17">
      <!-- 60 -->
      <g transform="translate(196.275 171.651811) scale(0.1 -0.1)">
       <use xlink:href="#DejaVuSans-36"/>
       <use xlink:href="#DejaVuSans-30" x="63.623047"/>
      </g>
     </g>
    </g>
    <g id="ytick_8">
     <g id="line2d_33">
      <path d="M 216 92.717603 
L 1555.2 92.717603 
" clip-path="url(#pc6f2b31dd4)" style="fill: none; stroke: #b0b0b0; stroke-width: 0.8; stroke-linecap: square"/>
     </g>
     <g id="line2d_34">
      <g>
       <use xlink:href="#md26901c7ea" x="216" y="92.717603" style="stroke: #000000; stroke-width: 0.8"/>
      </g>
     </g>
     <g id="text_18">
      <!-- 80 -->
      <g transform="translate(196.275 96.516822) scale(0.1 -0.1)">
       <use xlink:href="#DejaVuSans-38"/>
       <use xlink:href="#DejaVuSans-30" x="63.623047"/>
      </g>
     </g>
    </g>
    <g id="text_19">
     <!-- MACD Value -->
     <g transform="translate(181.815625 393.908594) rotate(-90) scale(0.1 -0.1)">
      <defs>
       <path id="DejaVuSans-4d" d="M 628 4666 
L 1569 4666 
L 2759 1491 
L 3956 4666 
L 4897 4666 
L 4897 0 
L 4281 0 
L 4281 4097 
L 3078 897 
L 2444 897 
L 1241 4097 
L 1241 0 
L 628 0 
L 628 4666 
z
" transform="scale(0.015625)"/>
       <path id="DejaVuSans-41" d="M 2188 4044 
L 1331 1722 
L 3047 1722 
L 2188 4044 
z
M 1831 4666 
L 2547 4666 
L 4325 0 
L 3669 0 
L 3244 1197 
L 1141 1197 
L 716 0 
L 50 0 
L 1831 4666 
z
" transform="scale(0.015625)"/>
       <path id="DejaVuSans-43" d="M 4122 4306 
L 4122 3641 
Q 3803 3938 3442 4084 
Q 3081 4231 2675 4231 
Q 1875 4231 1450 3742 
Q 1025 3253 1025 2328 
Q 1025 1406 1450 917 
Q 1875 428 2675 428 
Q 3081 428 3442 575 
Q 3803 722 4122 1019 
L 4122 359 
Q 3791 134 3420 21 
Q 3050 -91 2638 -91 
Q 1578 -91 968 557 
Q 359 1206 359 2328 
Q 359 3453 968 4101 
Q 1578 4750 2638 4750 
Q 3056 4750 3426 4639 
Q 3797 4528 4122 4306 
z
" transform="scale(0.015625)"/>
       <path id="DejaVuSans-44" d="M 1259 4147 
L 1259 519 
L 2022 519 
Q 2988 519 3436 956 
Q 3884 1394 3884 2338 
Q 3884 3275 3436 3711 
Q 2988 4147 2022 4147 
L 1259 4147 
z
M 628 4666 
L 1925 4666 
Q 3281 4666 3915 4102 
Q 4550 3538 4550 2338 
Q 4550 1131 3912 565 
Q 3275 0 1925 0 
L 628 0 
L 628 4666 
z
" transform="scale(0.015625)"/>
       <path id="DejaVuSans-20" transform="scale(0.015625)"/>
       <path id="DejaVuSans-56" d="M 1831 0 
L 50 4666 
L 709 4666 
L 2188 738 
L 3669 4666 
L 4325 4666 
L 2547 0 
L 1831 0 
z
" transform="scale(0.015625)"/>
       <path id="DejaVuSans-61" d="M 2194 1759 
Q 1497 1759 1228 1600 
Q 959 1441 959 1056 
Q 959 750 1161 570 
Q 1363 391 1709 391 
Q 2188 391 2477 730 
Q 2766 1069 2766 1631 
L 2766 1759 
L 2194 1759 
z
M 3341 1997 
L 3341 0 
L 2766 0 
L 2766 531 
Q 2569 213 2275 61 
Q 1981 -91 1556 -91 
Q 1019 -91 701 211 
Q 384 513 384 1019 
Q 384 1609 779 1909 
Q 1175 2209 1959 2209 
L 2766 2209 
L 2766 2266 
Q 2766 2663 2505 2880 
Q 2244 3097 1772 3097 
Q 1472 3097 1187 3025 
Q 903 2953 641 2809 
L 641 3341 
Q 956 3463 1253 3523 
Q 1550 3584 1831 3584 
Q 2591 3584 2966 3190 
Q 3341 2797 3341 1997 
z
" transform="scale(0.015625)"/>
       <path id="DejaVuSans-6c" d="M 603 4863 
L 1178 4863 
L 1178 0 
L 603 0 
L 603 4863 
z
" transform="scale(0.015625)"/>
       <path id="DejaVuSans-75" d="M 544 1381 
L 544 3500 
L 1119 3500 
L 1119 1403 
Q 1119 906 1312 657 
Q 1506 409 1894 409 
Q 2359 409 2629 706 
Q 2900 1003 2900 1516 
L 2900 3500 
L 3475 3500 
L 3475 0 
L 2900 0 
L 2900 538 
Q 2691 219 2414 64 
Q 2138 -91 1772 -91 
Q 1169 -91 856 284 
Q 544 659 544 1381 
z
M 1991 3584 
L 1991 3584 
z
" transform="scale(0.015625)"/>
      </defs>
      <use xlink:href="#DejaVuSans-4d"/>
      <use xlink:href="#DejaVuSans-41" x="86.279297"/>
      <use xlink:href="#DejaVuSans-43" x="152.9375"/>
      <use xlink:href="#DejaVuSans-44" x="222.761719"/>
      <use xlink:href="#DejaVuSans-20" x="299.763672"/>
      <use xlink:href="#DejaVuSans-56" x="331.550781"/>
      <use xlink:href="#DejaVuSans-61" x="392.208984"/>
      <use xlink:href="#DejaVuSans-6c" x="453.488281"/>
      <use xlink:href="#DejaVuSans-75" x="481.271484"/>
      <use xlink:href="#DejaVuSans-65" x="544.650391"/>
     </g>
    </g>
   </g>
   <g id="line2d_35">
    <path d="M 276.872727 393.257559 
L 282.990589 398.12255 
L 289.108451 401.134073 
L 295.226313 397.686908 
L 301.344175 396.639883 
L 307.462037 403.357263 
L 313.579899 412.39431 
L 319.697762 414.680031 
L 325.815624 408.89337 
L 331.933486 405.338885 
L 344.16921 402.940352 
L 350.287072 400.128993 
L 356.404934 404.767862 
L 362.522796 399.975475 
L 368.640658 400.490718 
L 374.75852 387.859059 
L 380.876382 374.935019 
L 386.994244 367.473701 
L 393.112106 358.989081 
L 405.34783 340.738915 
L 411.465692 341.120913 
L 423.701416 356.762827 
L 429.819278 353.368369 
L 435.93714 346.242443 
L 442.055002 341.531296 
L 448.172864 332.849342 
L 454.290726 336.921551 
L 460.408588 338.589666 
L 466.52645 339.595412 
L 472.644312 334.974607 
L 478.762175 339.262511 
L 484.880037 345.478183 
L 490.997899 346.960364 
L 497.115761 352.06336 
L 503.233623 359.33984 
L 509.351485 362.16318 
L 515.469347 367.779945 
L 521.587209 377.094983 
L 527.705071 390.309233 
L 533.822933 399.18858 
L 539.940795 405.451767 
L 546.058657 405.020857 
L 552.176519 410.329004 
L 558.294381 412.488899 
L 564.412243 411.974826 
L 570.530105 408.948546 
L 576.647967 409.652139 
L 582.765829 405.082907 
L 588.883691 404.816186 
L 595.001553 409.363783 
L 607.237277 411.835924 
L 613.355139 406.706686 
L 619.473001 401.086517 
L 625.590863 395.753564 
L 631.708725 395.970459 
L 637.826587 390.143873 
L 643.94445 383.319398 
L 650.062312 384.533137 
L 656.180174 387.676609 
L 662.298036 398.353291 
L 668.415898 405.949383 
L 674.53376 405.705231 
L 680.651622 407.847086 
L 686.769484 404.9968 
L 692.887346 402.389653 
L 699.005208 397.42718 
L 705.12307 396.646073 
L 711.240932 393.781309 
L 717.358794 373.823782 
L 723.476656 365.338652 
L 729.594518 354.662767 
L 735.71238 347.682276 
L 741.830242 340.523293 
L 747.948104 332.238229 
L 754.065966 329.217621 
L 760.183828 322.160436 
L 766.30169 319.079536 
L 772.419552 320.662511 
L 778.537414 320.34268 
L 784.655276 324.552218 
L 790.773138 325.204377 
L 796.891 336.964855 
L 803.008862 343.012675 
L 809.126725 346.712564 
L 815.244587 332.626973 
L 821.362449 326.412915 
L 827.480311 332.665071 
L 833.598173 335.108901 
L 839.716035 339.136856 
L 845.833897 348.777649 
L 851.951759 341.347553 
L 858.069621 328.313834 
L 864.187483 321.400042 
L 870.305345 319.967301 
L 876.423207 301.445775 
L 882.541069 287.86969 
L 888.658931 281.547152 
L 894.776793 283.224234 
L 900.894655 276.443673 
L 907.012517 264.1148 
L 913.130379 259.453629 
L 919.248241 249.339824 
L 925.366103 248.603863 
L 931.483965 230.799808 
L 937.601827 220.251152 
L 943.719689 206.976772 
L 949.837551 200.457756 
L 955.955413 214.005065 
L 962.073275 221.878735 
L 968.191138 231.400672 
L 974.309 233.945908 
L 980.426862 231.040923 
L 986.544724 223.927744 
L 992.662586 213.948915 
L 998.780448 202.112607 
L 1004.89831 202.174232 
L 1011.016172 243.603713 
L 1017.134034 277.265035 
L 1023.251896 331.13724 
L 1029.369758 456.050021 
L 1035.48762 544.790243 
L 1041.605482 568.369586 
L 1047.723344 590.198514 
L 1053.841206 589.866546 
L 1059.959068 587.896871 
L 1066.07693 600.696555 
L 1072.194792 615.499688 
L 1078.312654 615.6 
L 1084.430516 574.74471 
L 1090.548378 494.7697 
L 1096.66624 435.642024 
L 1102.784102 370.167017 
L 1108.901964 287.892389 
L 1115.019826 235.349282 
L 1121.137688 189.348302 
L 1127.25555 139.811722 
L 1139.491275 116.000331 
L 1145.609137 120.310534 
L 1151.726999 121.281511 
L 1157.844861 116.879475 
L 1163.962723 111.6 
L 1170.080585 113.872439 
L 1176.198447 124.83113 
L 1182.316309 136.340452 
L 1188.434171 160.532495 
L 1194.552033 201.713545 
L 1200.669895 239.797204 
L 1206.787757 265.327307 
L 1212.905619 287.563628 
L 1219.023481 322.982575 
L 1225.141343 352.810732 
L 1231.259205 378.539638 
L 1237.377067 411.164044 
L 1243.494929 434.170937 
L 1249.612791 443.965816 
L 1255.730653 446.604313 
L 1261.848515 451.477955 
L 1267.966377 449.423346 
L 1274.084239 445.994286 
L 1280.202101 446.287932 
L 1286.319963 437.495354 
L 1292.437825 426.78633 
L 1298.555688 406.684252 
L 1304.67355 391.796942 
L 1310.791412 372.3746 
L 1316.909274 348.209075 
L 1323.027136 333.278442 
L 1329.144998 301.66422 
L 1335.26286 297.304334 
L 1341.380722 298.195579 
L 1347.498584 296.050658 
L 1353.616446 283.316859 
L 1359.734308 275.124915 
L 1365.85217 273.059141 
L 1371.970032 273.191115 
L 1378.087894 277.16815 
L 1384.205756 286.696239 
L 1390.323618 283.989765 
L 1396.44148 291.803841 
L 1402.559342 289.27258 
L 1408.677204 297.678612 
L 1414.795066 295.286435 
L 1420.912928 293.186222 
L 1427.03079 295.388892 
L 1433.148652 292.145756 
L 1439.266514 290.739952 
L 1445.384376 315.820559 
L 1451.502238 334.463607 
L 1457.620101 338.14838 
L 1463.737963 344.810045 
L 1469.855825 353.912627 
L 1475.973687 354.52435 
L 1482.091549 368.865487 
L 1488.209411 389.392688 
L 1494.327273 403.509001 
L 1494.327273 403.509001 
" clip-path="url(#pc6f2b31dd4)" style="fill: none; stroke: #ba55d3; stroke-width: 1.5; stroke-linecap: square"/>
   </g>
   <g id="line2d_36">
    <path d="M 331.933486 406.02275 
L 338.051348 405.903532 
L 344.16921 405.426803 
L 350.287072 404.343061 
L 356.404934 404.598375 
L 362.522796 403.754043 
L 368.640658 403.032414 
L 374.75852 399.407473 
L 380.876382 393.556795 
L 386.994244 387.343699 
L 393.112106 380.55769 
L 399.229968 373.120175 
L 405.34783 365.147478 
L 411.465692 358.922546 
L 417.583554 355.589684 
L 423.701416 354.784701 
L 429.819278 353.367762 
L 435.93714 350.941484 
L 442.055002 348.255818 
L 448.172864 344.341528 
L 454.290726 342.326631 
L 460.408588 341.3073 
L 466.52645 340.937412 
L 472.644312 339.596983 
L 478.762175 339.296541 
L 484.880037 340.261383 
L 490.997899 341.447015 
L 497.115761 343.710324 
L 503.233623 347.264666 
L 509.351485 350.949603 
L 515.469347 355.058064 
L 521.587209 360.39181 
L 527.705071 367.595371 
L 533.822933 375.458876 
L 539.940795 383.049838 
L 552.176519 394.691545 
L 558.294381 399.704736 
L 564.412243 403.425049 
L 570.530105 405.655313 
L 576.647967 407.462042 
L 582.765829 407.65955 
L 588.883691 407.439886 
L 601.119415 408.689141 
L 607.237277 409.482454 
L 613.355139 408.840155 
L 619.473001 407.015108 
L 625.590863 404.372547 
L 631.708725 402.379902 
L 637.826587 399.463366 
L 643.94445 395.710984 
L 650.062312 392.987444 
L 656.180174 391.403526 
L 662.298036 392.499951 
L 668.415898 395.048219 
L 674.53376 397.155529 
L 680.651622 399.456486 
L 686.769484 400.786923 
L 692.887346 401.261903 
L 705.12307 400.185973 
L 711.240932 399.127533 
L 717.358794 393.733511 
L 723.476656 387.260271 
L 741.830242 363.881833 
L 747.948104 355.802683 
L 760.183828 341.601552 
L 766.30169 335.231049 
L 772.419552 330.558246 
L 778.537414 327.228482 
L 784.655276 325.711987 
L 790.773138 324.901753 
L 796.891 327.056533 
L 803.008862 330.307651 
L 809.126725 333.936858 
L 815.244587 333.756903 
L 821.362449 332.390412 
L 827.480311 332.772185 
L 833.598173 333.58708 
L 839.716035 335.149187 
L 845.833897 338.457696 
L 851.951759 339.424041 
L 858.069621 336.993873 
L 864.187483 333.355149 
L 870.305345 330.03414 
L 876.423207 323.566308 
L 888.658931 307.479401 
L 894.776793 301.380124 
L 900.894655 294.884558 
L 907.012517 286.693783 
L 913.130379 279.275544 
L 919.248241 271.388439 
L 925.366103 265.08019 
L 937.601827 246.95998 
L 943.719689 237.017213 
L 949.837551 227.754469 
L 955.955413 223.33931 
L 962.073275 221.734469 
L 968.191138 222.880672 
L 974.309 224.480053 
L 980.426862 225.351991 
L 986.544724 224.473482 
L 992.662586 221.963169 
L 998.780448 217.556679 
L 1004.89831 214.364649 
L 1011.016172 221.25047 
L 1017.134034 233.975294 
L 1023.251896 256.03623 
L 1029.369758 301.443613 
L 1035.48762 357.591248 
L 1041.605482 407.862385 
L 1047.723344 453.141372 
L 1053.841206 489.530252 
L 1059.959068 518.484793 
L 1066.07693 544.514815 
L 1072.194792 567.658881 
L 1078.312654 585.386785 
L 1084.430516 589.11909 
L 1090.548378 571.180732 
L 1096.66624 541.447097 
L 1102.784102 502.422714 
L 1108.901964 452.243753 
L 1127.25555 295.714395 
L 1133.373413 250.402397 
L 1139.491275 211.50259 
L 1145.609137 182.331379 
L 1151.726999 161.136008 
L 1157.844861 144.615896 
L 1163.962723 131.792099 
L 1170.080585 124.021586 
L 1176.198447 121.524644 
L 1182.316309 123.21254 
L 1188.434171 131.175032 
L 1194.552033 147.060523 
L 1200.669895 168.58617 
L 1212.905619 214.651724 
L 1219.023481 241.276333 
L 1231.259205 297.584322 
L 1237.377067 327.188878 
L 1243.494929 355.750511 
L 1249.612791 380.212425 
L 1255.730653 399.382397 
L 1261.848515 414.894135 
L 1267.966377 426.228969 
L 1274.084239 433.993565 
L 1280.202101 439.418925 
L 1286.319963 441.071557 
L 1292.437825 439.375233 
L 1298.555688 432.729262 
L 1304.67355 423.523362 
L 1310.791412 411.571265 
L 1316.909274 396.531629 
L 1323.027136 381.037342 
L 1329.144998 361.607921 
L 1335.26286 345.170013 
L 1341.380722 332.212313 
L 1347.498584 321.577099 
L 1353.616446 310.473455 
L 1359.734308 300.238686 
L 1365.85217 291.946177 
L 1371.970032 285.809003 
L 1378.087894 282.371727 
L 1384.205756 282.115952 
L 1390.323618 282.065502 
L 1396.44148 283.880838 
L 1402.559342 284.744517 
L 1408.677204 287.370501 
L 1414.795066 289.241653 
L 1420.912928 290.465086 
L 1427.03079 291.987058 
L 1433.148652 292.474809 
L 1439.266514 292.454349 
L 1445.384376 297.828265 
L 1451.502238 306.369636 
L 1463.737963 321.370407 
L 1469.855825 329.231732 
L 1475.973687 335.715404 
L 1482.091549 344.166116 
L 1488.209411 355.472979 
L 1494.327273 367.759366 
L 1494.327273 367.759366 
" clip-path="url(#pc6f2b31dd4)" style="fill: none; stroke: #1e90ff; stroke-width: 1.5; stroke-linecap: square"/>
   </g>
   <g id="patch_3">
    <path d="M 216 640.8 
L 216 86.4 
" style="fill: none; stroke: #000000; stroke-width: 0.8; stroke-linejoin: miter; stroke-linecap: square"/>
   </g>
   <g id="patch_4">
    <path d="M 1555.2 640.8 
L 1555.2 86.4 
" style="fill: none; stroke: #000000; stroke-width: 0.8; stroke-linejoin: miter; stroke-linecap: square"/>
   </g>
   <g id="patch_5">
    <path d="M 216 640.8 
L 1555.2 640.8 
" style="fill: none; stroke: #000000; stroke-width: 0.8; stroke-linejoin: miter; stroke-linecap: square"/>
   </g>
   <g id="patch_6">
    <path d="M 216 86.4 
L 1555.2 86.4 
" style="fill: none; stroke: #000000; stroke-width: 0.8; stroke-linejoin: miter; stroke-linecap: square"/>
   </g>
   <g id="text_20">
    <!-- MACD Indicator For The ETHUSDC Over Time -->
    <g transform="translate(751.036875 80.4) scale(0.12 -0.12)">
     <defs>
      <path id="DejaVuSans-49" d="M 628 4666 
L 1259 4666 
L 1259 0 
L 628 0 
L 628 4666 
z
" transform="scale(0.015625)"/>
      <path id="DejaVuSans-6e" d="M 3513 2113 
L 3513 0 
L 2938 0 
L 2938 2094 
Q 2938 2591 2744 2837 
Q 2550 3084 2163 3084 
Q 1697 3084 1428 2787 
Q 1159 2491 1159 1978 
L 1159 0 
L 581 0 
L 581 3500 
L 1159 3500 
L 1159 2956 
Q 1366 3272 1645 3428 
Q 1925 3584 2291 3584 
Q 2894 3584 3203 3211 
Q 3513 2838 3513 2113 
z
" transform="scale(0.015625)"/>
      <path id="DejaVuSans-64" d="M 2906 2969 
L 2906 4863 
L 3481 4863 
L 3481 0 
L 2906 0 
L 2906 525 
Q 2725 213 2448 61 
Q 2172 -91 1784 -91 
Q 1150 -91 751 415 
Q 353 922 353 1747 
Q 353 2572 751 3078 
Q 1150 3584 1784 3584 
Q 2172 3584 2448 3432 
Q 2725 3281 2906 2969 
z
M 947 1747 
Q 947 1113 1208 752 
Q 1469 391 1925 391 
Q 2381 391 2643 752 
Q 2906 1113 2906 1747 
Q 2906 2381 2643 2742 
Q 2381 3103 1925 3103 
Q 1469 3103 1208 2742 
Q 947 2381 947 1747 
z
" transform="scale(0.015625)"/>
      <path id="DejaVuSans-63" d="M 3122 3366 
L 3122 2828 
Q 2878 2963 2633 3030 
Q 2388 3097 2138 3097 
Q 1578 3097 1268 2742 
Q 959 2388 959 1747 
Q 959 1106 1268 751 
Q 1578 397 2138 397 
Q 2388 397 2633 464 
Q 2878 531 3122 666 
L 3122 134 
Q 2881 22 2623 -34 
Q 2366 -91 2075 -91 
Q 1284 -91 818 406 
Q 353 903 353 1747 
Q 353 2603 823 3093 
Q 1294 3584 2113 3584 
Q 2378 3584 2631 3529 
Q 2884 3475 3122 3366 
z
" transform="scale(0.015625)"/>
      <path id="DejaVuSans-74" d="M 1172 4494 
L 1172 3500 
L 2356 3500 
L 2356 3053 
L 1172 3053 
L 1172 1153 
Q 1172 725 1289 603 
Q 1406 481 1766 481 
L 2356 481 
L 2356 0 
L 1766 0 
Q 1100 0 847 248 
Q 594 497 594 1153 
L 594 3053 
L 172 3053 
L 172 3500 
L 594 3500 
L 594 4494 
L 1172 4494 
z
" transform="scale(0.015625)"/>
      <path id="DejaVuSans-6f" d="M 1959 3097 
Q 1497 3097 1228 2736 
Q 959 2375 959 1747 
Q 959 1119 1226 758 
Q 1494 397 1959 397 
Q 2419 397 2687 759 
Q 2956 1122 2956 1747 
Q 2956 2369 2687 2733 
Q 2419 3097 1959 3097 
z
M 1959 3584 
Q 2709 3584 3137 3096 
Q 3566 2609 3566 1747 
Q 3566 888 3137 398 
Q 2709 -91 1959 -91 
Q 1206 -91 779 398 
Q 353 888 353 1747 
Q 353 2609 779 3096 
Q 1206 3584 1959 3584 
z
" transform="scale(0.015625)"/>
      <path id="DejaVuSans-72" d="M 2631 2963 
Q 2534 3019 2420 3045 
Q 2306 3072 2169 3072 
Q 1681 3072 1420 2755 
Q 1159 2438 1159 1844 
L 1159 0 
L 581 0 
L 581 3500 
L 1159 3500 
L 1159 2956 
Q 1341 3275 1631 3429 
Q 1922 3584 2338 3584 
Q 2397 3584 2469 3576 
Q 2541 3569 2628 3553 
L 2631 2963 
z
" transform="scale(0.015625)"/>
      <path id="DejaVuSans-46" d="M 628 4666 
L 3309 4666 
L 3309 4134 
L 1259 4134 
L 1259 2759 
L 3109 2759 
L 3109 2228 
L 1259 2228 
L 1259 0 
L 628 0 
L 628 4666 
z
" transform="scale(0.015625)"/>
      <path id="DejaVuSans-68" d="M 3513 2113 
L 3513 0 
L 2938 0 
L 2938 2094 
Q 2938 2591 2744 2837 
Q 2550 3084 2163 3084 
Q 1697 3084 1428 2787 
Q 1159 2491 1159 1978 
L 1159 0 
L 581 0 
L 581 4863 
L 1159 4863 
L 1159 2956 
Q 1366 3272 1645 3428 
Q 1925 3584 2291 3584 
Q 2894 3584 3203 3211 
Q 3513 2838 3513 2113 
z
" transform="scale(0.015625)"/>
      <path id="DejaVuSans-45" d="M 628 4666 
L 3578 4666 
L 3578 4134 
L 1259 4134 
L 1259 2753 
L 3481 2753 
L 3481 2222 
L 1259 2222 
L 1259 531 
L 3634 531 
L 3634 0 
L 628 0 
L 628 4666 
z
" transform="scale(0.015625)"/>
      <path id="DejaVuSans-48" d="M 628 4666 
L 1259 4666 
L 1259 2753 
L 3553 2753 
L 3553 4666 
L 4184 4666 
L 4184 0 
L 3553 0 
L 3553 2222 
L 1259 2222 
L 1259 0 
L 628 0 
L 628 4666 
z
" transform="scale(0.015625)"/>
      <path id="DejaVuSans-55" d="M 556 4666 
L 1191 4666 
L 1191 1831 
Q 1191 1081 1462 751 
Q 1734 422 2344 422 
Q 2950 422 3222 751 
Q 3494 1081 3494 1831 
L 3494 4666 
L 4128 4666 
L 4128 1753 
Q 4128 841 3676 375 
Q 3225 -91 2344 -91 
Q 1459 -91 1007 375 
Q 556 841 556 1753 
L 556 4666 
z
" transform="scale(0.015625)"/>
      <path id="DejaVuSans-53" d="M 3425 4513 
L 3425 3897 
Q 3066 4069 2747 4153 
Q 2428 4238 2131 4238 
Q 1616 4238 1336 4038 
Q 1056 3838 1056 3469 
Q 1056 3159 1242 3001 
Q 1428 2844 1947 2747 
L 2328 2669 
Q 3034 2534 3370 2195 
Q 3706 1856 3706 1288 
Q 3706 609 3251 259 
Q 2797 -91 1919 -91 
Q 1588 -91 1214 -16 
Q 841 59 441 206 
L 441 856 
Q 825 641 1194 531 
Q 1563 422 1919 422 
Q 2459 422 2753 634 
Q 3047 847 3047 1241 
Q 3047 1584 2836 1778 
Q 2625 1972 2144 2069 
L 1759 2144 
Q 1053 2284 737 2584 
Q 422 2884 422 3419 
Q 422 4038 858 4394 
Q 1294 4750 2059 4750 
Q 2388 4750 2728 4690 
Q 3069 4631 3425 4513 
z
" transform="scale(0.015625)"/>
      <path id="DejaVuSans-4f" d="M 2522 4238 
Q 1834 4238 1429 3725 
Q 1025 3213 1025 2328 
Q 1025 1447 1429 934 
Q 1834 422 2522 422 
Q 3209 422 3611 934 
Q 4013 1447 4013 2328 
Q 4013 3213 3611 3725 
Q 3209 4238 2522 4238 
z
M 2522 4750 
Q 3503 4750 4090 4092 
Q 4678 3434 4678 2328 
Q 4678 1225 4090 567 
Q 3503 -91 2522 -91 
Q 1538 -91 948 565 
Q 359 1222 359 2328 
Q 359 3434 948 4092 
Q 1538 4750 2522 4750 
z
" transform="scale(0.015625)"/>
      <path id="DejaVuSans-76" d="M 191 3500 
L 800 3500 
L 1894 563 
L 2988 3500 
L 3597 3500 
L 2284 0 
L 1503 0 
L 191 3500 
z
" transform="scale(0.015625)"/>
     </defs>
     <use xlink:href="#DejaVuSans-4d"/>
     <use xlink:href="#DejaVuSans-41" x="86.279297"/>
     <use xlink:href="#DejaVuSans-43" x="152.9375"/>
     <use xlink:href="#DejaVuSans-44" x="222.761719"/>
     <use xlink:href="#DejaVuSans-20" x="299.763672"/>
     <use xlink:href="#DejaVuSans-49" x="331.550781"/>
     <use xlink:href="#DejaVuSans-6e" x="361.042969"/>
     <use xlink:href="#DejaVuSans-64" x="424.421875"/>
     <use xlink:href="#DejaVuSans-69" x="487.898438"/>
     <use xlink:href="#DejaVuSans-63" x="515.681641"/>
     <use xlink:href="#DejaVuSans-61" x="570.662109"/>
     <use xlink:href="#DejaVuSans-74" x="631.941406"/>
     <use xlink:href="#DejaVuSans-6f" x="671.150391"/>
     <use xlink:href="#DejaVuSans-72" x="732.332031"/>
     <use xlink:href="#DejaVuSans-20" x="773.445312"/>
     <use xlink:href="#DejaVuSans-46" x="805.232422"/>
     <use xlink:href="#DejaVuSans-6f" x="859.126953"/>
     <use xlink:href="#DejaVuSans-72" x="920.308594"/>
     <use xlink:href="#DejaVuSans-20" x="961.421875"/>
     <use xlink:href="#DejaVuSans-54" x="993.208984"/>
     <use xlink:href="#DejaVuSans-68" x="1054.292969"/>
     <use xlink:href="#DejaVuSans-65" x="1117.671875"/>
     <use xlink:href="#DejaVuSans-20" x="1179.195312"/>
     <use xlink:href="#DejaVuSans-45" x="1210.982422"/>
     <use xlink:href="#DejaVuSans-54" x="1274.166016"/>
     <use xlink:href="#DejaVuSans-48" x="1335.25"/>
     <use xlink:href="#DejaVuSans-55" x="1410.445312"/>
     <use xlink:href="#DejaVuSans-53" x="1483.638672"/>
     <use xlink:href="#DejaVuSans-44" x="1547.115234"/>
     <use xlink:href="#DejaVuSans-43" x="1624.117188"/>
     <use xlink:href="#DejaVuSans-20" x="1693.941406"/>
     <use xlink:href="#DejaVuSans-4f" x="1725.728516"/>
     <use xlink:href="#DejaVuSans-76" x="1804.439453"/>
     <use xlink:href="#DejaVuSans-65" x="1863.619141"/>
     <use xlink:href="#DejaVuSans-72" x="1925.142578"/>
     <use xlink:href="#DejaVuSans-20" x="1966.255859"/>
     <use xlink:href="#DejaVuSans-54" x="1998.042969"/>
     <use xlink:href="#DejaVuSans-69" x="2056.001953"/>
     <use xlink:href="#DejaVuSans-6d" x="2083.785156"/>
     <use xlink:href="#DejaVuSans-65" x="2181.197266"/>
    </g>
   </g>
   <g id="legend_1">
    <g id="patch_7">
     <path d="M 1461.4625 123.75625 
L 1548.2 123.75625 
Q 1550.2 123.75625 1550.2 121.75625 
L 1550.2 93.4 
Q 1550.2 91.4 1548.2 91.4 
L 1461.4625 91.4 
Q 1459.4625 91.4 1459.4625 93.4 
L 1459.4625 121.75625 
Q 1459.4625 123.75625 1461.4625 123.75625 
z
" style="fill: #ffffff; opacity: 0.8; stroke: #cccccc; stroke-linejoin: miter"/>
    </g>
    <g id="line2d_37">
     <path d="M 1463.4625 99.498437 
L 1473.4625 99.498437 
L 1483.4625 99.498437 
" style="fill: none; stroke: #ba55d3; stroke-width: 1.5; stroke-linecap: square"/>
    </g>
    <g id="text_21">
     <!-- MACD Line -->
     <g transform="translate(1491.4625 102.998437) scale(0.1 -0.1)">
      <defs>
       <path id="DejaVuSans-4c" d="M 628 4666 
L 1259 4666 
L 1259 531 
L 3531 531 
L 3531 0 
L 628 0 
L 628 4666 
z
" transform="scale(0.015625)"/>
      </defs>
      <use xlink:href="#DejaVuSans-4d"/>
      <use xlink:href="#DejaVuSans-41" x="86.279297"/>
      <use xlink:href="#DejaVuSans-43" x="152.9375"/>
      <use xlink:href="#DejaVuSans-44" x="222.761719"/>
      <use xlink:href="#DejaVuSans-20" x="299.763672"/>
      <use xlink:href="#DejaVuSans-4c" x="331.550781"/>
      <use xlink:href="#DejaVuSans-69" x="387.263672"/>
      <use xlink:href="#DejaVuSans-6e" x="415.046875"/>
      <use xlink:href="#DejaVuSans-65" x="478.425781"/>
     </g>
    </g>
    <g id="line2d_38">
     <path d="M 1463.4625 114.176562 
L 1473.4625 114.176562 
L 1483.4625 114.176562 
" style="fill: none; stroke: #1e90ff; stroke-width: 1.5; stroke-linecap: square"/>
    </g>
    <g id="text_22">
     <!-- Signal Line -->
     <g transform="translate(1491.4625 117.676562) scale(0.1 -0.1)">
      <defs>
       <path id="DejaVuSans-67" d="M 2906 1791 
Q 2906 2416 2648 2759 
Q 2391 3103 1925 3103 
Q 1463 3103 1205 2759 
Q 947 2416 947 1791 
Q 947 1169 1205 825 
Q 1463 481 1925 481 
Q 2391 481 2648 825 
Q 2906 1169 2906 1791 
z
M 3481 434 
Q 3481 -459 3084 -895 
Q 2688 -1331 1869 -1331 
Q 1566 -1331 1297 -1286 
Q 1028 -1241 775 -1147 
L 775 -588 
Q 1028 -725 1275 -790 
Q 1522 -856 1778 -856 
Q 2344 -856 2625 -561 
Q 2906 -266 2906 331 
L 2906 616 
Q 2728 306 2450 153 
Q 2172 0 1784 0 
Q 1141 0 747 490 
Q 353 981 353 1791 
Q 353 2603 747 3093 
Q 1141 3584 1784 3584 
Q 2172 3584 2450 3431 
Q 2728 3278 2906 2969 
L 2906 3500 
L 3481 3500 
L 3481 434 
z
" transform="scale(0.015625)"/>
      </defs>
      <use xlink:href="#DejaVuSans-53"/>
      <use xlink:href="#DejaVuSans-69" x="63.476562"/>
      <use xlink:href="#DejaVuSans-67" x="91.259766"/>
      <use xlink:href="#DejaVuSans-6e" x="154.736328"/>
      <use xlink:href="#DejaVuSans-61" x="218.115234"/>
      <use xlink:href="#DejaVuSans-6c" x="279.394531"/>
      <use xlink:href="#DejaVuSans-20" x="307.177734"/>
      <use xlink:href="#DejaVuSans-4c" x="338.964844"/>
      <use xlink:href="#DejaVuSans-69" x="394.677734"/>
      <use xlink:href="#DejaVuSans-6e" x="422.460938"/>
      <use xlink:href="#DejaVuSans-65" x="485.839844"/>
     </g>
    </g>
   </g>
  </g>
 </g>
 <defs>
  <clipPath id="pc6f2b31dd4">
   <rect x="216" y="86.4" width="1339.2" height="554.4"/>
  </clipPath>
 </defs>
</svg>
